PathFileType	4	(X/Y/Z)	s01c0001.trc
DataRate	CameraRate	NumFrames	NumMarkers	Units	OrigDataRate	OrigDataStartFrame	OrigNumFrames
200	200	4	49	mm	200	750	2000
Frame#	Time	racr			lacr			c7			jug			rlel			rdr			llel			ldr			s2			lic			ric			lasi			rasi			rpsi			lpsi			rgt			lgt			rth1			rth2			rth3			rth4			rlfc			rmfc			rsh1			rsh2			rsh3			rsh4			rlmal			rmmal			rcal			rtoe			rmt5			rmt1			lth1			lth2			lth4			lth3			llfc			lmfc			lsh1			lsh2			lsh3			lsh4			llmal			lmmal			lcal			ltoe			lmt1			lmt5			
		X1	Y1	Z1	X2	Y2	Z2	X3	Y3	Z3	X4	Y4	Z4	X5	Y5	Z5	X6	Y6	Z6	X7	Y7	Z7	X8	Y8	Z8	X9	Y9	Z9	X10	Y10	Z10	X11	Y11	Z11	X12	Y12	Z12	X13	Y13	Z13	X14	Y14	Z14	X15	Y15	Z15	X16	Y16	Z16	X17	Y17	Z17	X18	Y18	Z18	X19	Y19	Z19	X20	Y20	Z20	X21	Y21	Z21	X22	Y22	Z22	X23	Y23	Z23	X24	Y24	Z24	X25	Y25	Z25	X26	Y26	Z26	X27	Y27	Z27	X28	Y28	Z28	X29	Y29	Z29	X30	Y30	Z30	X31	Y31	Z31	X32	Y32	Z32	X33	Y33	Z33	X34	Y34	Z34	X35	Y35	Z35	X36	Y36	Z36	X37	Y37	Z37	X38	Y38	Z38	X39	Y39	Z39	X40	Y40	Z40	X41	Y41	Z41	X42	Y42	Z42	X43	Y43	Z43	X44	Y44	Z44	X45	Y45	Z45	X46	Y46	Z46	X47	Y47	Z47	X48	Y48	Z48	X49	Y49	Z49	
750	3.7500	491.964325	1501.304688	-343.708893	301.906586	1483.645020	-684.296021	373.549530	1530.813110	-492.320801	504.526062	1459.946533	-562.335571	553.500916	1253.402832	-180.090439	713.511719	1057.424438	-70.435051	204.735672	1211.608521	-780.005615	210.712997	1004.740601	-950.131409	334.816071	1019.566345	-456.842438	362.658295	1090.110596	-674.342957	539.014648	1062.230591	-390.136536	414.756592	1026.090576	-676.945374	567.498413	1015.074097	-442.601898	377.150726	1050.321289	-419.300964	321.389709	1053.645752	-509.217957	510.884735	928.238342	-357.578400	331.681335	922.694031	-679.869080	532.755981	809.007751	-347.639404	538.854736	726.884827	-357.624115	532.866577	637.507446	-373.022217	576.730591	731.098877	-397.139618	503.131256	517.316162	-386.235504	443.045135	492.981140	-475.100769	489.423920	401.589203	-337.733276	484.482971	317.349335	-343.098480	469.110840	228.984634	-352.172272	509.241882	317.066742	-399.410675	447.188263	98.864143	-371.245117	447.521790	122.367447	-459.177063	393.784760	67.867142	-415.810486	651.912903	91.797798	-492.141113	581.407043	50.557915	-391.133240	561.328308	62.413963	-504.446106	318.205872	802.956299	-686.910034	336.612366	717.191650	-687.125854	386.448853	727.580872	-706.806152	353.079529	634.025879	-674.918823	361.455322	520.449768	-652.339966	389.611023	489.540680	-545.347717	303.614197	409.761780	-664.947021	302.405029	323.013977	-656.297974	303.824005	238.111542	-638.776794	365.172760	322.721802	-654.194763	317.242920	104.660919	-620.068665	382.514893	116.286942	-558.649597	304.857635	64.510002	-560.204346	543.350098	97.087242	-692.440918	498.345917	65.845444	-617.377014	426.172791	57.391575	-707.056396	
751	3.7550	491.959076	1501.289185	-343.704742	301.882538	1483.618164	-684.287476	373.550079	1530.782959	-492.319061	504.527618	1459.916748	-562.334656	553.489807	1253.408569	-180.096680	713.509155	1057.422607	-70.442398	204.701782	1211.595459	-779.966064	210.691116	1004.715149	-950.106628	334.829681	1019.563477	-456.850677	362.656647	1090.112671	-674.330139	539.057007	1062.209595	-390.156219	414.774353	1026.093384	-676.952759	567.510803	1015.075439	-442.605316	377.164215	1050.324707	-419.302582	321.404144	1053.648682	-509.212738	510.899567	928.240112	-357.579224	331.692719	922.685608	-679.874084	532.756348	809.007996	-347.639801	538.851318	726.873413	-357.608063	532.868347	637.493408	-373.008148	576.737854	731.101501	-397.122223	503.134155	517.310303	-386.237610	443.053223	492.971863	-475.094513	489.424133	401.589508	-337.722595	484.411682	317.388733	-343.036926	469.119324	228.984085	-352.168701	509.239410	317.062805	-399.415771	447.216858	98.856361	-371.235260	447.520813	122.367569	-459.177277	393.794952	67.864204	-415.814972	651.912964	91.798393	-492.138702	581.407043	50.557915	-391.133240	561.328918	62.413506	-504.443481	318.214294	802.954773	-686.919128	336.626465	717.200073	-687.136047	386.454163	727.579468	-706.812439	353.089569	634.025574	-674.919556	361.455322	520.449768	-652.339966	389.620819	489.526825	-545.338745	303.610657	409.766754	-664.952393	302.425720	322.995178	-656.301880	303.827332	238.111526	-638.776917	365.172333	322.722992	-654.193726	317.238312	104.666245	-620.070862	382.244965	116.439995	-558.640503	304.855988	64.520966	-560.199585	543.350098	97.087257	-692.440918	498.348419	65.846321	-617.371094	426.178040	57.373028	-707.061768	
752	3.7600	491.957062	1501.278198	-343.706451	301.879761	1483.598389	-684.285645	373.550812	1530.800903	-492.315063	504.499207	1459.936523	-562.317322	553.502441	1253.384644	-180.105133	713.508118	1057.418945	-70.437180	204.691711	1211.577026	-779.936035	210.659393	1004.690918	-950.077515	334.861053	1019.561279	-456.852661	362.680908	1090.105591	-674.332581	539.065491	1062.208862	-390.169739	414.776550	1026.093506	-676.954407	567.537292	1015.064636	-442.614899	377.175323	1050.328003	-419.305878	321.417633	1053.668823	-509.210388	510.915802	928.248901	-357.598480	331.695251	922.694580	-679.878479	532.771606	809.001099	-347.631317	538.873047	726.872925	-357.620636	532.868347	637.493408	-373.008148	576.742249	731.089355	-397.136383	503.149567	517.320984	-386.234680	443.042236	492.957001	-475.087585	489.410583	401.596710	-337.720154	484.475250	317.345337	-343.084320	469.108185	228.981659	-352.147186	509.246735	317.064575	-399.416138	447.207184	98.872337	-371.245911	447.522675	122.369484	-459.175873	393.784637	67.867210	-415.810486	651.911987	91.802216	-492.139313	581.414368	50.568138	-391.124420	561.328552	62.411671	-504.445038	318.221558	802.952026	-686.925964	336.632507	717.203003	-687.134460	386.456085	727.581665	-706.818420	353.091003	634.030212	-674.918884	361.449005	520.440979	-652.341309	389.609558	489.540894	-545.339111	303.614899	409.765533	-664.949524	302.407074	323.022156	-656.314941	303.825378	238.109329	-638.779724	365.168213	322.721313	-654.195374	317.230591	104.650589	-620.075500	382.500793	116.282288	-558.643616	304.849365	64.506714	-560.210693	543.355347	97.086670	-692.432861	498.351562	65.850044	-617.381042	426.158478	57.387943	-707.064026	
753	3.7650	491.953918	1501.262939	-343.705231	301.870972	1483.601929	-684.274719	373.541901	1530.787231	-492.271454	504.500336	1459.926025	-562.316772	553.499451	1253.366333	-180.083435	713.508423	1057.396973	-70.449425	204.672913	1211.546021	-779.905701	210.648773	1004.677246	-950.067322	334.858826	1019.573120	-456.859924	362.675751	1090.107666	-674.337769	539.077881	1062.210449	-390.162964	414.784363	1026.089355	-676.957947	567.547119	1015.069397	-442.626038	377.191345	1050.319946	-419.294434	321.441345	1053.663452	-509.212585	510.930145	928.242981	-357.613373	331.696228	922.695740	-679.877441	532.799316	809.001709	-347.647400	538.880066	726.869080	-357.615387	532.889954	637.502441	-373.012878	576.756958	731.101868	-397.142029	503.146576	517.328003	-386.230713	443.051300	492.967804	-475.082397	489.416443	401.597900	-337.706390	484.440308	317.406616	-343.054260	469.102203	228.981934	-352.164490	509.248993	317.074219	-399.424255	447.213165	98.881645	-371.239197	447.524323	122.369484	-459.170654	393.796448	67.853065	-415.799316	651.907593	91.806305	-492.139191	581.395935	50.568714	-391.128876	561.327637	62.410294	-504.448212	318.224091	802.950867	-686.931152	336.633698	717.183228	-687.138977	386.459686	727.580933	-706.820923	353.089630	634.025513	-674.919556	361.448761	520.441162	-652.341431	389.610291	489.533661	-545.347900	303.603821	409.764526	-664.940613	302.392395	323.018372	-656.316772	303.823517	238.109161	-638.780945	365.167847	322.718567	-654.196472	317.229828	104.665657	-620.069153	382.214050	116.442070	-558.622314	304.848022	64.517639	-560.205872	543.357422	97.079239	-692.439941	498.342834	65.847191	-617.377563	426.164368	57.393810	-707.065247	
